<svg id="instagram-icon" data-name="instagram-icon-2" xmlns="http://www.w3.org/2000/svg" width="40" height="40" viewBox="0 0 40 40">
  <path id="instagram-icon-path-01" data-name="instagram-icon-path-01-7" d="M110.8,125.678h12.226a5.34,5.34,0,0,0,5.328-5.339V107.608a5.34,5.34,0,0,0-5.328-5.339H110.8a5.341,5.341,0,0,0-5.331,5.339v12.731A5.34,5.34,0,0,0,110.8,125.678Zm13.864-21.155a1.689,1.689,0,1,1-1.687,1.689A1.687,1.687,0,0,1,124.668,104.523Zm-7.752,1.91a7.541,7.541,0,1,1-7.529,7.54A7.543,7.543,0,0,1,116.916,106.432Z" transform="translate(-96.917 -93.973)" fill="#fff"/>
  <path id="instagram-icon-path-02" data-name="instagram-icon-path-02-8" d="M193.356,198.888a5.53,5.53,0,1,0-5.528-5.531A5.539,5.539,0,0,0,193.356,198.888Z" transform="translate(-173.358 -173.358)" fill="#fff"/>
  <path id="instagram-icon-path-03" data-name="instagram-icon-path-03-9" d="M31.507,0H8.493A8.492,8.492,0,0,0,0,8.493V31.507A8.492,8.492,0,0,0,8.493,40H31.507A8.492,8.492,0,0,0,40,31.507V8.493A8.492,8.492,0,0,0,31.507,0ZM5.225,13.468a8.492,8.492,0,0,1,8.493-8.493H26.282a8.492,8.492,0,0,1,8.49,8.493V26.532a8.492,8.492,0,0,1-8.49,8.493H13.718a8.492,8.492,0,0,1-8.493-8.493V13.468Z" fill="#fff"/>
</svg>
