<svg xmlns="http://www.w3.org/2000/svg" width="27" height="20" viewBox="0 0 27 20">
  <g id="update-icon" transform="translate(0 -72.491)">
    <path id="update-icon-path-01" data-name="update-icon-path-01" d="M26.9,89.9l-2.4-3.124V73.642a1.133,1.133,0,0,0-1.114-1.151H3.615A1.133,1.133,0,0,0,2.5,73.642V86.779L.1,89.9a.47.47,0,0,0-.1.287v1.383a.9.9,0,0,0,.889.918H26.111A.9.9,0,0,0,27,91.573V90.19A.469.469,0,0,0,26.9,89.9ZM4.072,74.115H22.928V85.156H4.072ZM16.038,91.4H10.962V90.011h5.075Z" transform="translate(0)" fill="#4b4b4b"/>
    <path id="update-icon-path-02" data-name="update-icon-path-02" d="M149.533,167.431a.03.03,0,0,0-.017.005L146.34,169.6a.032.032,0,0,0-.013.026v.583a.03.03,0,0,0,.013.025l3.175,2.167a.027.027,0,0,0,.017.006.03.03,0,0,0,.014,0,.031.031,0,0,0,.016-.027v-.929a.031.031,0,0,0-.013-.025l-2.2-1.505,2.2-1.5a.031.031,0,0,0,.013-.026v-.928a.03.03,0,0,0-.016-.027A.025.025,0,0,0,149.533,167.431Z" transform="translate(-138.657 -89.788)" fill="#4b4b4b"/>
    <path id="update-icon-path-03" data-name="update-icon-path-03" d="M305.253,167.436a.031.031,0,0,0-.017-.005.026.026,0,0,0-.014,0,.03.03,0,0,0-.016.027v.929a.031.031,0,0,0,.013.025l2.2,1.5-2.2,1.505a.032.032,0,0,0-.013.026v.928a.031.031,0,0,0,.016.027.031.031,0,0,0,.014,0,.028.028,0,0,0,.017-.006l3.175-2.167a.028.028,0,0,0,.014-.025v-.583a.03.03,0,0,0-.014-.026Z" transform="translate(-289.207 -89.788)" fill="#4b4b4b"/>
    <path id="update-icon-path-04" data-name="update-icon-path-04" d="M231.165,158.224h-.888a.03.03,0,0,0-.029.021l-2.015,5.844a.03.03,0,0,0,0,.027.032.032,0,0,0,.025.013h.888a.031.031,0,0,0,.029-.021l2.015-5.843a.032.032,0,0,0,0-.028A.031.031,0,0,0,231.165,158.224Z" transform="translate(-216.262 -81.086)" fill="#4b4b4b"/>
  </g>
</svg>
