<svg xmlns="http://www.w3.org/2000/svg" xmlns:xlink="http://www.w3.org/1999/xlink" width="759" height="200" viewBox="0 0 759 200">
  <defs>
    <clipPath id="clip-logo">
      <rect width="759" height="200"/>
    </clipPath>
  </defs>
  <g id="logo" clip-path="url(#clip-logo)">
    <rect width="759" height="200" fill="#fff"/>
    <g id="logo-g" data-name="logo-g">
      <g id="logo-inner" transform="translate(-12 -30)">
        <g id="logo-icon" data-name="logo-icon" transform="translate(12 30)">
          <circle id="logo-circle" data-name="logo-circle" cx="100" cy="100" r="100" fill="#404040"/>
        </g>
        <g id="logo-wabe-icon-g" transform="translate(42.09 71.081)">
          <path id="logo-wabe-icon-01" data-name="logo-wabe-icon-01" d="M134.32,39.343a18.153,18.153,0,0,0-6.877,4.026c-1.308,1.18-2.363,2.36-3.307,3.393a20.222,20.222,0,0,1-3.682,3.446,6.636,6.636,0,0,1-1.718.806,7.689,7.689,0,0,1-7.749-1.861c-.79-.707-1.637-1.631-2.6-2.69a29.241,29.241,0,0,0-5.675-5.137,16.864,16.864,0,0,0-4.311-2,17.868,17.868,0,0,0-17.526,4.048c-1.308,1.18-2.363,2.36-3.308,3.393a20.221,20.221,0,0,1-3.678,3.446,6.641,6.641,0,0,1-1.718.806,7.686,7.686,0,0,1-7.744-1.859c-.79-.707-1.637-1.631-2.6-2.692a29.328,29.328,0,0,0-5.677-5.137,16.829,16.829,0,0,0-4.311-2,17.86,17.86,0,0,0-17.522,4.048c-1.307,1.18-2.36,2.363-3.305,3.393a20.126,20.126,0,0,1-3.678,3.446,6.645,6.645,0,0,1-1.716.806,7.939,7.939,0,0,1-2.336.313A7.943,7.943,0,0,1,20.91,51a7.946,7.946,0,0,1-3.04-1.849c-.788-.707-1.634-1.631-2.6-2.692A29.349,29.349,0,0,0,9.6,41.324a16.848,16.848,0,0,0-4.312-2A18.226,18.226,0,0,0,0,38.571V48.777a8.011,8.011,0,0,1,2.367.323,7.965,7.965,0,0,1,3.04,1.849c.789.709,1.635,1.633,2.6,2.692a29.319,29.319,0,0,0,5.676,5.137,16.885,16.885,0,0,0,4.311,2.007,18.261,18.261,0,0,0,5.285.748,18.053,18.053,0,0,0,5.361-.774,18.14,18.14,0,0,0,6.877-4.024c1.307-1.18,2.36-2.363,3.305-3.393A20.182,20.182,0,0,1,42.5,49.894a6.618,6.618,0,0,1,1.716-.8,7.69,7.69,0,0,1,7.745,1.859c.788.709,1.633,1.633,2.6,2.692a29.328,29.328,0,0,0,5.677,5.137,16.888,16.888,0,0,0,4.311,2.007,17.871,17.871,0,0,0,17.524-4.05c1.308-1.18,2.363-2.361,3.306-3.393a20.359,20.359,0,0,1,3.68-3.446,6.7,6.7,0,0,1,1.718-.806,7.7,7.7,0,0,1,7.749,1.859c.788.709,1.635,1.633,2.6,2.694a29.33,29.33,0,0,0,5.677,5.135,16.915,16.915,0,0,0,4.311,2.007,17.874,17.874,0,0,0,17.526-4.05c1.308-1.18,2.363-2.361,3.307-3.391a20.253,20.253,0,0,1,3.682-3.448,6.627,6.627,0,0,1,1.718-.8,7.937,7.937,0,0,1,2.338-.315V38.571A18.189,18.189,0,0,0,134.32,39.343Z" transform="translate(0.001 -38.57)" fill="#fff"/>
          <path id="logo-wabe-icon-02" data-name="logo-wabe-icon-02" d="M127.44,218.712a46.9,46.9,0,0,0-3.307,3.393,20.217,20.217,0,0,1-3.682,3.446,6.622,6.622,0,0,1-1.718.8,7.887,7.887,0,0,1-2.338.315,7.289,7.289,0,0,1-5.41-2.175c-.79-.707-1.637-1.631-2.6-2.69a29.242,29.242,0,0,0-5.675-5.137,16.861,16.861,0,0,0-4.311-2,17.867,17.867,0,0,0-17.526,4.048c-1.308,1.18-2.363,2.36-3.308,3.393a20.216,20.216,0,0,1-3.678,3.446,6.627,6.627,0,0,1-1.718.8,7.877,7.877,0,0,1-2.338.315,7.288,7.288,0,0,1-5.406-2.172c-.79-.707-1.637-1.631-2.6-2.692a29.33,29.33,0,0,0-5.677-5.137,16.828,16.828,0,0,0-4.311-2,17.859,17.859,0,0,0-17.522,4.048c-1.307,1.18-2.36,2.363-3.305,3.393a20.119,20.119,0,0,1-3.678,3.446,6.629,6.629,0,0,1-1.716.8,7.869,7.869,0,0,1-2.336.315,7.95,7.95,0,0,1-2.367-.323,7.948,7.948,0,0,1-3.04-1.849c-.788-.707-1.634-1.631-2.6-2.692a29.351,29.351,0,0,0-5.675-5.137,16.845,16.845,0,0,0-4.312-2A18.2,18.2,0,0,0,0,213.913v10.206a8.028,8.028,0,0,1,2.367.323,7.94,7.94,0,0,1,3.04,1.849c.789.707,1.635,1.633,2.6,2.692a29.326,29.326,0,0,0,5.676,5.137,16.8,16.8,0,0,0,4.311,2,18.2,18.2,0,0,0,5.285.75,18.118,18.118,0,0,0,5.361-.774,18.141,18.141,0,0,0,6.877-4.024c1.307-1.18,2.36-2.363,3.305-3.393a20.184,20.184,0,0,1,3.678-3.448,6.633,6.633,0,0,1,1.716-.8,7.69,7.69,0,0,1,7.745,1.859c.788.707,1.633,1.633,2.6,2.692a29.337,29.337,0,0,0,5.677,5.137,16.806,16.806,0,0,0,4.311,2,17.865,17.865,0,0,0,17.524-4.048,47.282,47.282,0,0,0,3.306-3.393,20.364,20.364,0,0,1,3.68-3.446,6.689,6.689,0,0,1,1.718-.806,7.7,7.7,0,0,1,7.749,1.859c.788.707,1.635,1.633,2.6,2.692a29.271,29.271,0,0,0,5.677,5.137,16.828,16.828,0,0,0,4.311,2,17.867,17.867,0,0,0,17.526-4.048c1.308-1.18,2.363-2.36,3.307-3.391a20.266,20.266,0,0,1,3.682-3.448,6.627,6.627,0,0,1,1.718-.8,7.933,7.933,0,0,1,2.338-.315V213.913a17.43,17.43,0,0,0-12.239,4.8Z" transform="translate(0.003 -166.077)" fill="#fff"/>
          <path id="logo-wabe-icon-03" data-name="logo-wabe-icon-03" d="M127.44,394.055c-1.308,1.178-2.363,2.361-3.307,3.391a20.243,20.243,0,0,1-3.682,3.448,6.621,6.621,0,0,1-1.718.8,7.949,7.949,0,0,1-2.338.315,8.045,8.045,0,0,1-2.37-.323,7.948,7.948,0,0,1-3.04-1.851c-.79-.707-1.637-1.631-2.6-2.692a29.31,29.31,0,0,0-5.675-5.135A16.949,16.949,0,0,0,98.4,390a17.874,17.874,0,0,0-17.526,4.05c-1.308,1.18-2.363,2.361-3.308,3.391a20.244,20.244,0,0,1-3.678,3.448,6.622,6.622,0,0,1-1.718.8,7.937,7.937,0,0,1-2.338.315,7.289,7.289,0,0,1-5.406-2.172c-.79-.709-1.637-1.633-2.6-2.694a29.388,29.388,0,0,0-5.677-5.135A16.912,16.912,0,0,0,51.833,390a17.866,17.866,0,0,0-17.522,4.05c-1.307,1.18-2.36,2.363-3.305,3.393a20.119,20.119,0,0,1-3.678,3.446,6.63,6.63,0,0,1-1.716.8,7.683,7.683,0,0,1-7.744-1.857c-.788-.709-1.634-1.633-2.6-2.692a29.341,29.341,0,0,0-5.675-5.138A16.936,16.936,0,0,0,5.282,390,18.27,18.27,0,0,0,0,389.256v10.206a7.948,7.948,0,0,1,2.367.323,7.939,7.939,0,0,1,3.04,1.849c.789.707,1.635,1.631,2.6,2.692a29.328,29.328,0,0,0,5.676,5.137,16.8,16.8,0,0,0,4.311,2,18.193,18.193,0,0,0,5.285.75,18.115,18.115,0,0,0,5.361-.774,18.142,18.142,0,0,0,6.877-4.024c1.307-1.18,2.36-2.363,3.305-3.393a20.176,20.176,0,0,1,3.678-3.448,6.621,6.621,0,0,1,1.716-.8,7.69,7.69,0,0,1,7.745,1.86c.788.707,1.633,1.631,2.6,2.692a29.338,29.338,0,0,0,5.677,5.137,16.806,16.806,0,0,0,4.311,2,17.865,17.865,0,0,0,17.524-4.048,47.254,47.254,0,0,0,3.306-3.393,20.3,20.3,0,0,1,3.68-3.446,6.637,6.637,0,0,1,1.718-.806,7.7,7.7,0,0,1,7.749,1.859c.788.707,1.635,1.631,2.6,2.692a29.272,29.272,0,0,0,5.677,5.137,16.828,16.828,0,0,0,4.311,2,17.868,17.868,0,0,0,17.526-4.048,47.329,47.329,0,0,0,3.307-3.393,20.238,20.238,0,0,1,3.682-3.446,6.579,6.579,0,0,1,1.718-.8,7.877,7.877,0,0,1,2.338-.315v-10.2a17.432,17.432,0,0,0-12.239,4.8Z" transform="translate(0.003 -293.583)" fill="#fff"/>
        </g>
      </g>
      <path id="logo-txt" data-name="logo-txt" d="M7.666,0V-71H22.119v58.936H58.057V0Zm60.6-58.887v-12.7H81.982v12.7ZM68.262,0V-51.855H81.982V0Zm61.67,19.727V-6.348a19.456,19.456,0,0,1-6.689,5.493A18.868,18.868,0,0,1,114.6,1.172a18.347,18.347,0,0,1-14.551-6.641q-6.738-7.764-6.738-21.045,0-12.5,6.323-19.507a20.29,20.29,0,0,1,15.7-7.007,17.535,17.535,0,0,1,8.96,2.2,20.509,20.509,0,0,1,6.714,6.641v-7.666h12.646V19.727Zm.439-46.289q0-7.959-3.247-11.841a10.169,10.169,0,0,0-8.13-3.882,10.47,10.47,0,0,0-8.325,3.955q-3.345,3.955-3.345,12.549,0,8.545,3.223,12.329a10.054,10.054,0,0,0,7.959,3.784q4.736,0,8.3-4.248T130.371-26.562ZM191.26,0V-7.764a19.987,19.987,0,0,1-7.446,6.543,20.874,20.874,0,0,1-9.741,2.393A19.046,19.046,0,0,1,164.7-1.123a13.548,13.548,0,0,1-6.006-6.445q-1.855-4.15-1.855-11.475V-51.855h13.721v23.828q0,10.938.757,13.4a7.309,7.309,0,0,0,2.759,3.906,8.479,8.479,0,0,0,5.078,1.44,10.8,10.8,0,0,0,6.3-1.929,9.811,9.811,0,0,0,3.809-4.785q1.025-2.856,1.025-13.989V-51.855H204V0Zm26.953-58.887v-12.7h13.721v12.7Zm0,58.887V-51.855h13.721V0Zm75.342,0H280.811V-7.617A20.59,20.59,0,0,1,273.315-1,19.23,19.23,0,0,1,264.6,1.172q-8.936,0-15.308-7.2T242.92-26.123q0-13.184,6.2-20.044a20.216,20.216,0,0,1,15.674-6.86q8.691,0,15.039,7.227V-71.582h13.721ZM256.934-27.051q0,8.3,2.295,12.012a10.369,10.369,0,0,0,9.277,5.371,10.1,10.1,0,0,0,8.057-4.028q3.32-4.028,3.32-12.036,0-8.936-3.223-12.866a10.2,10.2,0,0,0-8.252-3.931,10.309,10.309,0,0,0-8.179,3.882Q256.934-34.766,256.934-27.051Zm96.045.732,14.014,4.443Q363.77-10.156,356.274-4.468T337.256,1.221q-14.258,0-23.437-9.741t-9.18-26.636q0-17.871,9.229-27.759T338.135-72.8q13.135,0,21.338,7.764,4.883,4.59,7.324,13.184L352.49-48.437a15.174,15.174,0,0,0-5.3-8.789,15.179,15.179,0,0,0-9.79-3.223,16.287,16.287,0,0,0-12.915,5.713q-4.956,5.713-4.956,18.506,0,13.574,4.883,19.336a15.856,15.856,0,0,0,12.7,5.762,14.478,14.478,0,0,0,9.912-3.662Q351.172-18.457,352.979-26.318ZM379.2,0V-71.582H400.83l12.988,48.828L426.66-71.582h21.68V0H434.912V-56.348L420.7,0H406.787l-14.16-56.348V0Zm79.834-23.291L473.1-24.658q1.27,7.08,5.151,10.4t10.474,3.32q6.982,0,10.522-2.954a8.789,8.789,0,0,0,3.54-6.909,6.516,6.516,0,0,0-1.489-4.321,11.9,11.9,0,0,0-5.2-3.1q-2.539-.879-11.572-3.125-11.621-2.881-16.309-7.08a18.626,18.626,0,0,1-6.592-14.4,18.4,18.4,0,0,1,3.1-10.229,19.412,19.412,0,0,1,8.936-7.251,35.813,35.813,0,0,1,14.087-2.49q13.477,0,20.288,5.908t7.153,15.771l-14.453.635q-.928-5.518-3.979-7.935T487.6-60.84q-6.3,0-9.863,2.588a5.215,5.215,0,0,0-2.295,4.443,5.5,5.5,0,0,0,2.148,4.346q2.734,2.295,13.281,4.785t15.6,5.151a20.106,20.106,0,0,1,7.91,7.275,21.279,21.279,0,0,1,2.856,11.4,21.08,21.08,0,0,1-3.418,11.523,20.484,20.484,0,0,1-9.668,7.983Q497.9,1.27,488.574,1.27,475,1.27,467.725-5T459.033-23.291Z" transform="translate(240 135)" fill="#404040"/>
    </g>
  </g>
</svg>
