<svg xmlns="http://www.w3.org/2000/svg" width="19.745" height="25.783" viewBox="0 0 19.745 25.783">
  <g id="doc-icon" transform="translate(-59.948)">
    <path id="doc-icon-path-01" data-name="doc-icon-path-01" d="M78.549,0H68.335V7a1.4,1.4,0,0,1-1.4,1.4H59.948V24.639a1.144,1.144,0,0,0,1.143,1.143H78.55a1.145,1.145,0,0,0,1.143-1.143V1.142A1.144,1.144,0,0,0,78.549,0ZM76.225,21.866H63.416V20.642H76.225Zm0-4.964H63.416V15.679H76.225Zm0-4.963H63.416V10.715H76.225Zm0-4.963H70.187V5.752h6.038Z" transform="translate(0 0)" fill="#4b4b4b"/>
    <path id="doc-icon-path-02" data-name="doc-icon-path-02" d="M73.251,12.736V6.865L66.5,13.617h5.87C73,13.617,73.251,13.37,73.251,12.736Z" transform="translate(-6.221 -6.519)" fill="#4b4b4b"/>
  </g>
</svg>
