<svg xmlns="http://www.w3.org/2000/svg" width="10" height="26" viewBox="0 0 10 26">
  <g id="info-icon" transform="translate(-157.189)">
    <path id="info-icon-path-01" data-name="info-icon-path-01" d="M187.756,7.8a3.755,3.755,0,0,0,3.589-3.9,3.6,3.6,0,1,0-7.178,0A3.755,3.755,0,0,0,187.756,7.8Z" transform="translate(-25.528)" fill="#4b4b4b"/>
    <path id="info-icon-path-02" data-name="info-icon-path-02" d="M166.727,193.419h-.5a.955.955,0,0,1-.925-.983v-13.3a.523.523,0,0,0-.235-.442.459.459,0,0,0-.476-.014l-6.309,3.725c-1.836.975-.955,2.139-.271,2.11s2.719-.243,2.719-.243v8.16a.955.955,0,0,1-.925.983h-.98a.478.478,0,0,0-.462.491v2.143a.478.478,0,0,0,.462.491h7.9a.478.478,0,0,0,.463-.491V193.91A.478.478,0,0,0,166.727,193.419Z" transform="translate(0 -170.544)" fill="#4b4b4b"/>
  </g>
</svg>
