<svg xmlns="http://www.w3.org/2000/svg" xmlns:xlink="http://www.w3.org/1999/xlink" width="386" height="363" viewBox="0 0 386 363">
  <defs>
    <clipPath id="clip-Logout-icon">
      <rect width="386" height="363"/>
    </clipPath>
  </defs>
  <g id="Logout-icon" clip-path="url(#clip-Logout-icon)">
    <rect width="386" height="363" fill="#fff"/>
    <g id="circle-g" data-name="circle-g" fill="none" stroke="#000" stroke-width="8">
      <circle cx="181.5" cy="181.5" r="181.5" stroke="none"/>
      <circle cx="181.5" cy="181.5" r="177.5" fill="none"/>
    </g>
    <rect id="logout-rect" width="207" height="191" transform="translate(179 86)" fill="#fff"/>
    <g id="logout-arrow-g" data-name="logout-arrow-g" transform="translate(-46 -59)">
      <g id="logout-arrow-g-inner" data-name="logout-arrow-g-inner" transform="translate(0 -40)">
        <g id="logout-arrow-g-inner-inner" data-name="logout-arrow-g-inner-inner" transform="translate(0 41)">
          <path id="logout-arrow-path" data-name="logout-arrow-path" d="M4,0H158a2,2,0,0,1,2,2V6a2,2,0,0,1-2,2H4A4,4,0,0,1,0,4V4A4,4,0,0,1,4,0Z" transform="translate(270 235)"/>
          <rect id="logout-arrow-rect-1" data-name="logout-arrow-rect-1" width="80" height="8" rx="4" transform="translate(370.142 185) rotate(40)"/>
          <rect id="logout-arrow-rect-2" data-name="logout-arrow-rect-2" width="80" height="8" rx="4" transform="translate(365 287.423) rotate(-40)"/>
        </g>
      </g>
    </g>
  </g>
</svg>
