<svg xmlns="http://www.w3.org/2000/svg" width="402" height="402" viewBox="0 0 402 402">
  <g id="logo-icon" transform="translate(-12 -30)">
    <g id="logo-icon-grp-01" data-name="logo-icon-grp-01" transform="translate(12 30)">
      <circle id="logo-icon-grp-01-circle" data-name="logo-icon-grp-01-circle" cx="201" cy="201" r="201" fill="#fff"/>
    </g>
    <g id="logo-icon-grp-02" transform="translate(76.56 116.08)">
      <path id="logo-icon-grp-02-path-01" data-name="logo-icon-grp-02-path-01" d="M262.119,40.078a35.425,35.425,0,0,0-13.42,7.856c-2.552,2.3-4.611,4.606-6.453,6.621a39.464,39.464,0,0,1-7.186,6.725,12.95,12.95,0,0,1-3.352,1.573,15,15,0,0,1-15.121-3.632c-1.542-1.381-3.194-3.183-5.08-5.249a57.063,57.063,0,0,0-11.075-10.025,32.909,32.909,0,0,0-8.412-3.913,34.868,34.868,0,0,0-34.2,7.9c-2.552,2.3-4.61,4.606-6.456,6.621a39.46,39.46,0,0,1-7.178,6.725,12.96,12.96,0,0,1-3.352,1.573,15,15,0,0,1-15.113-3.629c-1.542-1.38-3.194-3.183-5.076-5.254a57.232,57.232,0,0,0-11.078-10.025,32.842,32.842,0,0,0-8.412-3.913,34.853,34.853,0,0,0-34.193,7.9c-2.55,2.3-4.606,4.61-6.45,6.621a39.276,39.276,0,0,1-7.178,6.725,12.967,12.967,0,0,1-3.348,1.573,15.493,15.493,0,0,1-4.559.611,15.5,15.5,0,0,1-4.62-.631,15.506,15.506,0,0,1-5.932-3.609c-1.538-1.381-3.188-3.183-5.074-5.254A57.273,57.273,0,0,0,18.726,43.944a32.878,32.878,0,0,0-8.414-3.913A35.567,35.567,0,0,0,0,38.572V58.488a15.634,15.634,0,0,1,4.62.631,15.543,15.543,0,0,1,5.932,3.609c1.54,1.384,3.191,3.186,5.074,5.253A57.215,57.215,0,0,0,26.7,78.006a32.95,32.95,0,0,0,8.412,3.916,35.635,35.635,0,0,0,10.313,1.459,35.23,35.23,0,0,0,10.461-1.51,35.4,35.4,0,0,0,13.419-7.852c2.55-2.3,4.606-4.61,6.45-6.622a39.384,39.384,0,0,1,7.178-6.728A12.914,12.914,0,0,1,86.284,59.1,15.006,15.006,0,0,1,101.4,62.727c1.538,1.384,3.186,3.186,5.072,5.253a57.232,57.232,0,0,0,11.078,10.025,32.957,32.957,0,0,0,8.412,3.916,34.875,34.875,0,0,0,34.2-7.9c2.552-2.3,4.61-4.607,6.452-6.622a39.73,39.73,0,0,1,7.182-6.724,13.074,13.074,0,0,1,3.352-1.574,15.02,15.02,0,0,1,15.121,3.628c1.538,1.384,3.19,3.186,5.076,5.257a57.237,57.237,0,0,0,11.078,10.022,33.008,33.008,0,0,0,8.412,3.916,34.879,34.879,0,0,0,34.2-7.9c2.552-2.3,4.611-4.607,6.453-6.618a39.523,39.523,0,0,1,7.186-6.728,12.932,12.932,0,0,1,3.352-1.569,15.488,15.488,0,0,1,4.563-.615V38.571A35.5,35.5,0,0,0,262.119,40.078Z" transform="translate(0.002 -38.57)" fill="#4b4b4b"/>
      <path id="logo-icon-grp-02-path-02" data-name="logo-icon-grp-02-path-02" d="M248.7,223.277a91.506,91.506,0,0,0-6.453,6.622,39.454,39.454,0,0,1-7.186,6.724,12.921,12.921,0,0,1-3.352,1.57,15.389,15.389,0,0,1-4.563.615,14.224,14.224,0,0,1-10.558-4.244c-1.542-1.38-3.194-3.182-5.08-5.249a57.065,57.065,0,0,0-11.075-10.025,32.9,32.9,0,0,0-8.412-3.912,34.866,34.866,0,0,0-34.2,7.9c-2.552,2.3-4.61,4.606-6.456,6.622a39.45,39.45,0,0,1-7.178,6.724,12.932,12.932,0,0,1-3.352,1.57,15.371,15.371,0,0,1-4.563.615,14.223,14.223,0,0,1-10.55-4.239c-1.542-1.38-3.194-3.182-5.076-5.254a57.237,57.237,0,0,0-11.078-10.025,32.839,32.839,0,0,0-8.412-3.912,34.851,34.851,0,0,0-34.193,7.9c-2.55,2.3-4.606,4.61-6.45,6.622a39.26,39.26,0,0,1-7.178,6.724,12.938,12.938,0,0,1-3.348,1.57,15.357,15.357,0,0,1-4.559.615,15.515,15.515,0,0,1-4.62-.631,15.51,15.51,0,0,1-5.932-3.608c-1.538-1.38-3.188-3.183-5.074-5.254a57.277,57.277,0,0,0-11.074-10.025,32.874,32.874,0,0,0-8.414-3.912A35.511,35.511,0,0,0,0,213.913V233.83a15.665,15.665,0,0,1,4.62.631,15.5,15.5,0,0,1,5.932,3.609c1.54,1.38,3.191,3.187,5.074,5.254A57.23,57.23,0,0,0,26.7,253.347a32.779,32.779,0,0,0,8.412,3.912,35.507,35.507,0,0,0,10.313,1.463,35.356,35.356,0,0,0,10.461-1.511A35.4,35.4,0,0,0,69.3,249.36c2.55-2.3,4.606-4.611,6.45-6.622a39.388,39.388,0,0,1,7.178-6.728,12.944,12.944,0,0,1,3.348-1.569,15.006,15.006,0,0,1,15.113,3.628c1.538,1.38,3.186,3.187,5.072,5.254a57.25,57.25,0,0,0,11.078,10.025,32.8,32.8,0,0,0,8.412,3.912,34.862,34.862,0,0,0,34.2-7.9,92.266,92.266,0,0,0,6.452-6.622,39.74,39.74,0,0,1,7.182-6.724,13.053,13.053,0,0,1,3.352-1.573,15.02,15.02,0,0,1,15.121,3.628c1.538,1.38,3.19,3.187,5.076,5.254a57.122,57.122,0,0,0,11.078,10.025,32.838,32.838,0,0,0,8.412,3.912,34.867,34.867,0,0,0,34.2-7.9c2.552-2.3,4.61-4.606,6.453-6.618a39.546,39.546,0,0,1,7.186-6.728,12.932,12.932,0,0,1,3.352-1.569,15.48,15.48,0,0,1,4.563-.615V213.913a34.014,34.014,0,0,0-23.884,9.364Z" transform="translate(0.003 -120.562)" fill="#4b4b4b"/>
      <path id="logo-icon-grp-02-path-03" data-name="logo-icon-grp-02-path-03" d="M248.7,398.62c-2.552,2.3-4.61,4.607-6.453,6.617a39.5,39.5,0,0,1-7.186,6.728,12.92,12.92,0,0,1-3.352,1.57,15.512,15.512,0,0,1-4.563.615,15.7,15.7,0,0,1-4.626-.631,15.51,15.51,0,0,1-5.932-3.612c-1.542-1.38-3.194-3.183-5.08-5.254a57.2,57.2,0,0,0-11.075-10.022,33.075,33.075,0,0,0-8.412-3.916,34.88,34.88,0,0,0-34.2,7.9c-2.552,2.3-4.61,4.607-6.456,6.617a39.508,39.508,0,0,1-7.178,6.728,12.925,12.925,0,0,1-3.352,1.569,15.487,15.487,0,0,1-4.563.615,14.223,14.223,0,0,1-10.55-4.24c-1.542-1.384-3.194-3.186-5.076-5.257a57.348,57.348,0,0,0-11.078-10.021,33,33,0,0,0-8.412-3.916,34.864,34.864,0,0,0-34.193,7.9c-2.55,2.3-4.606,4.61-6.45,6.622a39.26,39.26,0,0,1-7.178,6.724,12.94,12.94,0,0,1-3.348,1.57,14.993,14.993,0,0,1-15.111-3.625c-1.538-1.384-3.188-3.186-5.074-5.253a57.259,57.259,0,0,0-11.074-10.026,33.05,33.05,0,0,0-8.414-3.916A35.653,35.653,0,0,0,0,389.256v19.916a15.511,15.511,0,0,1,4.62.631,15.493,15.493,0,0,1,5.932,3.609c1.54,1.38,3.191,3.183,5.074,5.254A57.231,57.231,0,0,0,26.7,428.691a32.786,32.786,0,0,0,8.412,3.912,35.5,35.5,0,0,0,10.313,1.463,35.352,35.352,0,0,0,10.461-1.51A35.4,35.4,0,0,0,69.3,424.7c2.55-2.3,4.606-4.611,6.45-6.622a39.373,39.373,0,0,1,7.178-6.728,12.92,12.92,0,0,1,3.348-1.569,15.007,15.007,0,0,1,15.113,3.629c1.538,1.38,3.186,3.183,5.072,5.254a57.25,57.25,0,0,0,11.078,10.025,32.794,32.794,0,0,0,8.412,3.912,34.862,34.862,0,0,0,34.2-7.9,92.228,92.228,0,0,0,6.452-6.622,39.606,39.606,0,0,1,7.182-6.725,12.95,12.95,0,0,1,3.352-1.573,15.022,15.022,0,0,1,15.121,3.629c1.538,1.38,3.19,3.183,5.076,5.254a57.124,57.124,0,0,0,11.078,10.025,32.839,32.839,0,0,0,8.412,3.912,34.868,34.868,0,0,0,34.2-7.9,92.365,92.365,0,0,0,6.453-6.622,39.491,39.491,0,0,1,7.186-6.725,12.836,12.836,0,0,1,3.352-1.57,15.369,15.369,0,0,1,4.563-.615V389.258A34.017,34.017,0,0,0,248.7,398.62Z" transform="translate(0.003 -202.555)" fill="#4b4b4b"/>
    </g>
  </g>
</svg>
